<mxfile>
    <diagram id="iQ0er5mEKeK74gy6BC8Z" name="Page-1">
        <mxGraphModel dx="1844" dy="894" grid="1" gridSize="10" guides="1" tooltips="1" connect="1" arrows="1" fold="1" page="1" pageScale="1" pageWidth="850" pageHeight="1100" math="0" shadow="0">
            <root>
                <mxCell id="0"/>
                <mxCell id="1" parent="0"/>
                <mxCell id="2" value="Index&lt;br&gt;#&lt;span style=&quot;background-color: rgb(41 , 45 , 62) ; color: rgb(166 , 172 , 205) ; font-family: &amp;#34;consolas&amp;#34; , &amp;#34;courier new&amp;#34; , monospace ; font-size: 14px&quot;&gt;router&lt;/span&gt;&lt;span style=&quot;background-color: rgb(41 , 45 , 62) ; font-family: &amp;#34;consolas&amp;#34; , &amp;#34;courier new&amp;#34; , monospace ; font-size: 14px ; color: rgb(137 , 221 , 255)&quot;&gt;.&lt;/span&gt;&lt;span style=&quot;background-color: rgb(41 , 45 , 62) ; font-family: &amp;#34;consolas&amp;#34; , &amp;#34;courier new&amp;#34; , monospace ; font-size: 14px ; color: rgb(130 , 170 , 255)&quot;&gt;get&lt;/span&gt;&lt;span style=&quot;background-color: rgb(41 , 45 , 62) ; color: rgb(166 , 172 , 205) ; font-family: &amp;#34;consolas&amp;#34; , &amp;#34;courier new&amp;#34; , monospace ; font-size: 14px&quot;&gt;(&lt;/span&gt;&lt;div style=&quot;color: rgb(166 , 172 , 205) ; background-color: rgb(41 , 45 , 62) ; font-family: &amp;#34;consolas&amp;#34; , &amp;#34;courier new&amp;#34; , monospace ; font-size: 14px ; line-height: 19px&quot;&gt;&lt;div&gt;&amp;nbsp;&amp;nbsp;&amp;nbsp;&amp;nbsp;&lt;span style=&quot;color: #89ddff&quot;&gt;&quot;&lt;/span&gt;&lt;span style=&quot;color: #c3e88d&quot;&gt;/&lt;/span&gt;&lt;span style=&quot;color: #89ddff&quot;&gt;&quot;&lt;/span&gt;&lt;/div&gt;&lt;/div&gt;" style="rounded=0;whiteSpace=wrap;html=1;" vertex="1" parent="1">
                    <mxGeometry x="39" y="40" width="120" height="60" as="geometry"/>
                </mxCell>
            </root>
        </mxGraphModel>
    </diagram>
</mxfile>